# Blender 3.5.0
# www.blender.org
mtllib needle2.mtl
o 立方体.001
v 0.057284 0.053765 0.355073
v 0.092041 0.053313 0.358933
v 0.092101 0.057883 0.355073
v 0.829860 0.043723 0.358933
v 0.864617 0.043272 0.355073
v 0.829919 0.048293 0.355073
v 0.057284 0.053765 0.273147
v 0.092101 0.057883 0.273147
v 0.092041 0.053313 0.269288
v 0.864617 0.043272 0.273147
v 0.829860 0.043723 0.269288
v 0.829919 0.048293 0.273147
v 0.056023 -0.043228 0.355073
v 0.090721 -0.048248 0.355073
v 0.090780 -0.043679 0.358933
v 0.863357 -0.053721 0.355073
v 0.828599 -0.053269 0.358933
v 0.828540 -0.057838 0.355073
v 0.056023 -0.043228 0.273147
v 0.090780 -0.043679 0.269288
v 0.090721 -0.048248 0.273147
v 0.863357 -0.053721 0.273147
v 0.828540 -0.057838 0.273147
v 0.828599 -0.053269 0.269288
vn 0.0370 -0.3132 0.9490
vn -0.0370 0.3132 0.9490
vn -0.0452 -0.3121 0.9490
vn 0.0347 -0.9074 -0.4189
vn -0.0583 -0.9062 0.4189
vn -0.0583 -0.9062 -0.4189
vn 0.2206 0.6277 -0.7465
vn 0.2042 -0.6332 0.7465
vn 0.2042 -0.6332 -0.7465
vn 0.0583 0.9062 0.4189
vn -0.0347 0.9074 -0.4189
vn -0.0347 0.9074 0.4189
vn 0.0452 0.3121 -0.9490
vn -0.0452 -0.3121 -0.9490
vn -0.0370 0.3132 -0.9490
vn -0.2042 0.6332 0.7465
vn 0.0452 0.3121 0.9490
vn 0.2206 0.6277 0.7465
vn -0.2042 0.6332 -0.7465
vn 0.0583 0.9062 -0.4189
vn -0.2206 -0.6277 0.7465
vn 0.0347 -0.9074 0.4189
vn -0.2206 -0.6277 -0.7465
vn 0.0370 -0.3132 -0.9490
vt 0.135763 0.739237
vt 0.385763 0.000000
vt 0.385763 0.989237
vt 0.135763 0.750000
vt 0.125000 0.739237
vt 0.385763 0.010763
vt 0.614237 0.000000
vt 0.614237 0.989237
vt 0.625000 0.010763
vt 0.864237 0.739237
vt 0.625000 0.989237
vt 0.614237 0.010763
vt 0.135763 0.510763
vt 0.125000 0.510763
vt 0.385763 0.239237
vt 0.385763 0.260763
vt 0.135763 0.500000
vt 0.625000 0.260763
vt 0.864237 0.510763
vt 0.625000 0.239237
vt 0.614237 0.250000
vt 0.614237 0.260763
vt 0.614237 0.239237
vt 0.364237 0.739237
vt 0.375000 0.739237
vt 0.385763 0.739237
vt 0.385763 0.760763
vt 0.364237 0.750000
vt 0.625000 0.760763
vt 0.635763 0.739237
vt 0.614237 0.760763
vt 0.614237 0.750000
vt 0.614237 0.739237
vt 0.364237 0.510763
vt 0.364237 0.500000
vt 0.385763 0.489237
vt 0.375000 0.510763
vt 0.385763 0.510763
vt 0.635763 0.510763
vt 0.625000 0.489237
vt 0.614237 0.500000
vt 0.614237 0.510763
vt 0.614237 0.489237
s 1
usemtl マテリアル.003
f 17/31/1 2/3/2 15/27/3
f 23/42/4 14/26/5 21/38/6
f 10/19/7 16/30/8 22/39/9
f 6/12/10 8/15/11 3/6/12
f 11/22/13 20/36/14 9/16/15
f 1/1/16 2/4/2 3/5/12
f 4/7/17 5/9/18 6/12/10
f 7/13/19 8/14/11 9/17/15
f 10/20/7 11/21/13 12/23/20
f 13/24/21 14/25/5 15/28/3
f 16/29/8 17/31/1 18/32/22
f 19/34/23 20/35/14 21/37/6
f 22/40/9 23/41/4 24/43/24
f 1/1/16 8/14/11 7/13/19
f 4/7/17 3/6/12 2/2/2
f 10/20/7 6/12/10 5/9/18
f 9/16/15 12/23/20 11/22/13
f 7/13/19 20/35/14 19/34/23
f 22/40/9 11/22/13 10/18/7
f 21/38/6 24/43/24 23/42/4
f 19/34/23 14/26/5 13/24/21
f 16/30/8 23/42/4 22/39/9
f 15/27/3 18/33/22 17/31/1
f 13/24/21 2/4/2 1/1/16
f 5/11/18 17/31/1 16/29/8
f 19/34/23 1/1/16 7/13/19
f 17/31/1 4/8/17 2/3/2
f 23/42/4 18/33/22 14/26/5
f 10/19/7 5/10/18 16/30/8
f 6/12/10 12/23/20 8/15/11
f 11/22/13 24/43/24 20/36/14
f 1/1/16 3/5/12 8/14/11
f 4/7/17 6/12/10 3/6/12
f 10/20/7 12/23/20 6/12/10
f 9/16/15 8/15/11 12/23/20
f 7/13/19 9/17/15 20/35/14
f 22/40/9 24/43/24 11/22/13
f 21/38/6 20/36/14 24/43/24
f 19/34/23 21/38/6 14/26/5
f 16/30/8 18/33/22 23/42/4
f 15/27/3 14/26/5 18/33/22
f 13/24/21 15/28/3 2/4/2
f 5/11/18 4/8/17 17/31/1
f 19/34/23 13/24/21 1/1/16
